<svg xmlns="http://www.w3.org/2000/svg">
  <symbol id="icon-bars" viewBox="0 0 24 28">
    <path d="M24 21v2c0 0.547-0.453 1-1 1h-22c-0.547 0-1-0.453-1-1v-2c0-0.547 0.453-1 1-1h22c0.547 0 1 0.453 1 1zM24 13v2c0 0.547-0.453 1-1 1h-22c-0.547 0-1-0.453-1-1v-2c0-0.547 0.453-1 1-1h22c0.547 0 1 0.453 1 1zM24 5v2c0 0.547-0.453 1-1 1h-22c-0.547 0-1-0.453-1-1v-2c0-0.547 0.453-1 1-1h22c0.547 0 1 0.453 1 1z"></path>
  </symbol>
  <symbol id="icon-dashboard" viewBox="0 0 28 28">
    <path d="M6 18c0-1.109-0.891-2-2-2s-2 0.891-2 2 0.891 2 2 2 2-0.891 2-2zM9 11c0-1.109-0.891-2-2-2s-2 0.891-2 2 0.891 2 2 2 2-0.891 2-2zM15.687 18.516l1.578-5.969c0.125-0.531-0.187-1.078-0.719-1.219v0c-0.531-0.141-1.078 0.187-1.219 0.719l-1.578 5.969c-1.234 0.094-2.312 0.953-2.656 2.219-0.422 1.609 0.547 3.25 2.141 3.672 1.609 0.422 3.25-0.547 3.672-2.141 0.328-1.266-0.203-2.547-1.219-3.25zM26 18c0-1.109-0.891-2-2-2s-2 0.891-2 2 0.891 2 2 2 2-0.891 2-2zM16 8c0-1.109-0.891-2-2-2s-2 0.891-2 2 0.891 2 2 2 2-0.891 2-2zM23 11c0-1.109-0.891-2-2-2s-2 0.891-2 2 0.891 2 2 2 2-0.891 2-2zM28 18c0 2.688-0.766 5.281-2.203 7.547-0.187 0.281-0.5 0.453-0.844 0.453h-21.906c-0.344 0-0.656-0.172-0.844-0.453-1.437-2.25-2.203-4.859-2.203-7.547 0-7.719 6.281-14 14-14s14 6.281 14 14z"></path>
  </symbol>
  <symbol id="icon-pie-chart" viewBox="0 0 27 28">
    <path d="M12 13.906l8.531 8.531c-2.172 2.203-5.203 3.563-8.531 3.563-6.625 0-12-5.375-12-12s5.375-12 12-12v11.906zM14.922 14h12.078c0 3.328-1.359 6.359-3.563 8.531zM26 12h-12v-12c6.625 0 12 5.375 12 12z"></path>
  </symbol>
  <symbol id="icon-line-chart" viewBox="0 0 32 28">
    <path d="M32 24v2h-32v-24h2v22h30zM30 4.5v6.797c0 0.438-0.531 0.672-0.859 0.344l-1.891-1.891-9.891 9.891c-0.203 0.203-0.516 0.203-0.719 0l-3.641-3.641-6.5 6.5-3-3 9.141-9.141c0.203-0.203 0.516-0.203 0.719 0l3.641 3.641 7.25-7.25-1.891-1.891c-0.328-0.328-0.094-0.859 0.344-0.859h6.797c0.281 0 0.5 0.219 0.5 0.5z"></path>
  </symbol>
  <symbol id="icon-percent" viewBox="0 0 24 28">
    <path d="M20 20c0-1.094-0.906-2-2-2s-2 0.906-2 2 0.906 2 2 2 2-0.906 2-2zM8 8c0-1.094-0.906-2-2-2s-2 0.906-2 2 0.906 2 2 2 2-0.906 2-2zM24 20c0 3.313-2.688 6-6 6s-6-2.688-6-6 2.688-6 6-6 6 2.688 6 6zM22.5 3c0 0.219-0.078 0.422-0.203 0.594l-16.5 22c-0.187 0.25-0.484 0.406-0.797 0.406h-2.5c-0.547 0-1-0.453-1-1 0-0.219 0.078-0.422 0.203-0.594l16.5-22c0.187-0.25 0.484-0.406 0.797-0.406h2.5c0.547 0 1 0.453 1 1zM12 8c0 3.313-2.688 6-6 6s-6-2.688-6-6 2.688-6 6-6 6 2.688 6 6z"></path>
  </symbol>
  <symbol id="icon-plus" viewBox="0 0 22 28">
    <path d="M22 11.5v3c0 0.828-0.672 1.5-1.5 1.5h-6.5v6.5c0 0.828-0.672 1.5-1.5 1.5h-3c-0.828 0-1.5-0.672-1.5-1.5v-6.5h-6.5c-0.828 0-1.5-0.672-1.5-1.5v-3c0-0.828 0.672-1.5 1.5-1.5h6.5v-6.5c0-0.828 0.672-1.5 1.5-1.5h3c0.828 0 1.5 0.672 1.5 1.5v6.5h6.5c0.828 0 1.5 0.672 1.5 1.5z"></path>
  </symbol>
  <symbol id="icon-save" viewBox="0 0 24 28">
    <path d="M6 24h12v-6h-12v6zM20 24h2v-14c0-0.297-0.266-0.938-0.469-1.141l-4.391-4.391c-0.219-0.219-0.828-0.469-1.141-0.469v6.5c0 0.828-0.672 1.5-1.5 1.5h-9c-0.828 0-1.5-0.672-1.5-1.5v-6.5h-2v20h2v-6.5c0-0.828 0.672-1.5 1.5-1.5h13c0.828 0 1.5 0.672 1.5 1.5v6.5zM14 9.5v-5c0-0.266-0.234-0.5-0.5-0.5h-3c-0.266 0-0.5 0.234-0.5 0.5v5c0 0.266 0.234 0.5 0.5 0.5h3c0.266 0 0.5-0.234 0.5-0.5zM24 10v14.5c0 0.828-0.672 1.5-1.5 1.5h-21c-0.828 0-1.5-0.672-1.5-1.5v-21c0-0.828 0.672-1.5 1.5-1.5h14.5c0.828 0 1.969 0.469 2.562 1.062l4.375 4.375c0.594 0.594 1.062 1.734 1.062 2.562z"></path>
  </symbol>
  <symbol id="icon-trash-o" viewBox="0 0 22 28">
    <path d="M8 11.5v9c0 0.281-0.219 0.5-0.5 0.5h-1c-0.281 0-0.5-0.219-0.5-0.5v-9c0-0.281 0.219-0.5 0.5-0.5h1c0.281 0 0.5 0.219 0.5 0.5zM12 11.5v9c0 0.281-0.219 0.5-0.5 0.5h-1c-0.281 0-0.5-0.219-0.5-0.5v-9c0-0.281 0.219-0.5 0.5-0.5h1c0.281 0 0.5 0.219 0.5 0.5zM16 11.5v9c0 0.281-0.219 0.5-0.5 0.5h-1c-0.281 0-0.5-0.219-0.5-0.5v-9c0-0.281 0.219-0.5 0.5-0.5h1c0.281 0 0.5 0.219 0.5 0.5zM18 22.813v-14.812h-14v14.812c0 0.75 0.422 1.188 0.5 1.188h13c0.078 0 0.5-0.438 0.5-1.188zM7.5 6h7l-0.75-1.828c-0.047-0.063-0.187-0.156-0.266-0.172h-4.953c-0.094 0.016-0.219 0.109-0.266 0.172zM22 6.5v1c0 0.281-0.219 0.5-0.5 0.5h-1.5v14.812c0 1.719-1.125 3.187-2.5 3.187h-13c-1.375 0-2.5-1.406-2.5-3.125v-14.875h-1.5c-0.281 0-0.5-0.219-0.5-0.5v-1c0-0.281 0.219-0.5 0.5-0.5h4.828l1.094-2.609c0.313-0.766 1.25-1.391 2.078-1.391h5c0.828 0 1.766 0.625 2.078 1.391l1.094 2.609h4.828c0.281 0 0.5 0.219 0.5 0.5z"></path>
  </symbol>
  <symbol id="icon-usd-circle" viewBox="0 0 512 512">
    <path d="M504 256c0 136.967-111.033 248-248 248S8 392.967 8 256 119.033 8 256 8s248 111.033 248 248zm-177.811 3.732c-16.045-12.42-36.231-20.246-55.752-27.813-33.873-13.131-54.441-22.511-54.441-42.007 0-8.317 3.706-15.58 10.719-21.004 7.811-6.041 19.356-9.368 32.51-9.368 30.935 0 56.027 21.997 56.262 22.206a8.995 8.995 0 0 0 7.489 2.178 8.996 8.996 0 0 0 6.378-4.489l17.276-30.936a9 9 0 0 0-1.388-10.645c-.929-.96-20.51-20.774-57.242-28.105V76c0-6.627-5.373-12-12-12h-40c-6.627 0-12 5.373-12 12v35.356c-16.854 4.814-31.48 13.097-42.878 24.408-15.026 14.911-23.301 34.426-23.301 54.951 0 54.796 48.128 74.002 86.799 89.434 32.484 12.963 52.208 22.092 52.208 39.529 0 9.61-3.894 17.784-11.262 23.637-7.423 5.897-17.919 9.145-29.555 9.145-36.629 0-65.68-27.637-66.047-27.99a8.999 8.999 0 0 0-13.433 1.008l-21.695 28.525a9 9 0 0 0 .465 11.459c1.109 1.236 25.001 27.325 68.698 36.841V436c0 6.627 5.373 12 12 12h40c6.627 0 12-5.373 12-12v-34.218c17.605-4.721 32.759-13.618 44.422-26.223 14.563-15.739 22.583-36.44 22.583-58.291.001-23.706-9.425-42.527-28.815-57.536z"></path>
  </symbol>
</svg>
